<?xml version="1.0" encoding="UTF-8"?>
<svg width="347px" height="89px" viewBox="0 0 347 89" version="1.1" xmlns="http://www.w3.org/2000/svg" xmlns:xlink="http://www.w3.org/1999/xlink">
    <!-- Generator: Sketch 47.1 (45422) - http://www.bohemiancoding.com/sketch -->
    <title>subhub-logo</title>
    <desc>Created with Sketch.</desc>
    <defs>
        <radialGradient cx="-2.84623817%" cy="-169.00082%" fx="-2.84623817%" fy="-169.00082%" r="202.598563%" gradientTransform="translate(-0.028462,-1.690008),scale(0.589981,1.000000),translate(0.028462,1.690008)" id="radialGradient-1">
            <stop stop-color="#929497" offset="0%"></stop>
            <stop stop-color="#404041" offset="67.27%"></stop>
            <stop stop-color="#231F20" offset="100%"></stop>
        </radialGradient>
        <radialGradient cx="82.5421846%" cy="31.094691%" fx="82.5421846%" fy="31.094691%" r="176.493195%" gradientTransform="translate(0.825422,0.310947),scale(1.000000,0.568425),translate(-0.825422,-0.310947)" id="radialGradient-2">
            <stop stop-color="#929497" offset="0%"></stop>
            <stop stop-color="#404041" offset="67.27%"></stop>
            <stop stop-color="#231F20" offset="100%"></stop>
        </radialGradient>
        <radialGradient cx="-89.4160446%" cy="41.3131947%" fx="-89.4160446%" fy="41.3131947%" r="302.709468%" gradientTransform="translate(-0.894160,0.413132),scale(1.000000,0.574416),translate(0.894160,-0.413132)" id="radialGradient-3">
            <stop stop-color="#929497" offset="0%"></stop>
            <stop stop-color="#404041" offset="67.27%"></stop>
            <stop stop-color="#231F20" offset="100%"></stop>
        </radialGradient>
        <radialGradient cx="49.1945806%" cy="38.169331%" fx="49.1945806%" fy="38.169331%" r="66.6960691%" gradientTransform="translate(0.491946,0.381693),scale(1.000000,0.985198),translate(-0.491946,-0.381693)" id="radialGradient-4">
            <stop stop-color="#00A69C" offset="0%"></stop>
            <stop stop-color="#00423D" offset="100%"></stop>
        </radialGradient>
    </defs>
    <g id="Page-1" stroke="none" stroke-width="1" fill="none" fill-rule="evenodd">
        <g id="logo" fill-rule="nonzero">
            <g id="Group" transform="translate(18.000000, 15.000000)">
                <path d="M39.502,40.532 C38.742,41.26 37.911,41.928 36.988,42.531 C34.093,44.434 30.845,45.369 27.613,45.427 L24.054,54.864 C30.222,55.611 36.683,54.266 42.28,50.577 C44.787,48.934 46.924,46.948 48.683,44.721 L39.502,40.532 Z" id="Shape" fill="url(#radialGradient-1)"></path>
                <path d="M15.379,40.811 C14.327,39.838 13.366,38.727 12.547,37.474 C7.19,29.325 9.456,18.384 17.599,13.034 C20.06,11.41 22.781,10.494 25.508,10.215 L28.286,0.521 C22.819,0.319 17.235,1.742 12.313,4.976 C-0.284,13.254 -3.777,30.17 4.495,42.767 C6.488,45.806 8.995,48.306 11.813,50.247 L15.379,40.811 Z" id="Shape" fill="url(#radialGradient-2)"></path>
                <path d="M38.093,13.812 C39.6,14.98 40.95,16.403 42.054,18.085 C44.183,21.332 45.106,25.026 44.924,28.629 L54.106,32.812 C55.366,26.111 54.137,18.936 50.098,12.793 C47.664,9.085 44.469,6.176 40.86,4.111 L38.093,13.812 Z" id="Shape" fill="url(#radialGradient-3)"></path>
            </g>
            <path d="M85.936,53.654 C83.604,50.097 78.821,49.11 75.261,51.448 C74.184,52.156 73.34,53.096 72.754,54.162 L56.378,46.922 C57.651,43.506 57.353,39.552 55.196,36.273 C53.709,34.013 51.573,32.441 49.209,31.617 L54.21,14.092 C55.911,14.404 57.716,14.085 59.268,13.072 C62.482,10.962 63.367,6.65 61.261,3.442 C59.151,0.234 54.846,-0.655 51.632,1.456 C48.424,3.56 47.534,7.871 49.639,11.079 C50.457,12.318 51.606,13.209 52.885,13.715 L47.886,31.227 C44.865,30.552 41.587,31.046 38.795,32.876 C33.327,36.474 31.808,43.818 35.399,49.285 C36.711,51.278 38.522,52.739 40.56,53.629 L33.535,72.694 C31.445,72.129 29.146,72.414 27.198,73.686 C26.692,74.031 26.23,74.427 25.821,74.849 L12.166,64.045 C13.394,62.07 13.445,59.486 12.088,57.421 C10.224,54.577 6.406,53.785 3.562,55.655 C0.731,57.518 -0.062,61.337 1.802,64.174 C3.667,67.012 7.484,67.805 10.322,65.935 C10.692,65.702 11.017,65.428 11.316,65.128 L24.965,75.934 C23.309,78.454 23.205,81.824 24.965,84.498 C27.334,88.102 32.173,89.107 35.769,86.739 C39.379,84.368 40.379,79.53 38.01,75.927 C37.198,74.679 36.08,73.758 34.822,73.166 L41.854,54.108 C45.106,55.095 48.743,54.686 51.808,52.672 C53.576,51.511 54.925,49.946 55.834,48.18 L72.203,55.42 C71.471,57.589 71.703,60.056 73.054,62.115 C75.4,65.678 80.171,66.667 83.73,64.329 C87.285,61.993 88.279,57.214 85.936,53.654 Z" id="Shape" fill="url(#radialGradient-4)"></path>
        </g>
        <text id="subhub" font-family="Montserrat-Regular, Montserrat" font-size="64" font-weight="normal" fill="#4A4A4A">
            <tspan x="103.24" y="64">subhub</tspan>
        </text>
    </g>
</svg>